<?xml version="1.0" encoding="utf-8"?>
<!-- Anchor icon by Arthur Shlain from Usefulicons.com -->
<svg xmlns="http://www.w3.org/2000/svg" xmlns:xlink="http://www.w3.org/1999/xlink" xml:space="preserve" version="1.1" x="0px" y="0px" viewBox="0 0 100 100" width="400px" height="400px"><path d="M70,60C72.761,60,75,62.239,75,65C75,71.556,63.769,74.112,55,74.796L55,40L75,40L75,35L55,35L55,28.651C58.253,26.766,60.353,23.11,59.951,18.996C59.499,14.367,55.763,10.575,51.141,10.063C45.107,9.396,40,14.101,40,20C40,23.699,42.014,26.921,45,28.651L45,35L25,35L25,40L45,40L45,74.796C36.231,74.112,25,71.556,25,65C25,62.239,27.239,60,30,60L15,50L15,65C15,75.533,26.931,81.81,39.043,84.158C43.192,84.962,47,87,49.989,89.989L50,90L50,90C52.999,86.981,56.831,84.927,61.008,84.116C73.103,81.768,85,75.518,85,65L85,50L70,60ZM50,25C47.239,25,45,22.761,45,20S47.239,15,50,15S55,17.239,55,20S52.761,25,50,25Z" stroke="none"></path></svg>